<svg width="494" height="388" viewBox="0 0 494 388" fill="none" xmlns="http://www.w3.org/2000/svg">
<circle cx="346.5" cy="329.5" r="58" fill="#F3F3F3" stroke="#5A5789" stroke-dasharray="5 5"/>
<line x1="54" y1="109.5" x2="454" y2="109.5" stroke="#5A5789" stroke-miterlimit="3.8637" stroke-dasharray="5 5"/>
<line x1="117" y1="138.5" x2="517" y2="138.5" stroke="#5A5789" stroke-miterlimit="3.8637" stroke-dasharray="5 5"/>
<g clip-path="url(#clip0)">
<path d="M179.15 3.00336L167.522 9.44128L24.2634 88.7579L12.6354 95.1958C6.99319 98.328 2.80576 103.603 0.991837 109.865C-0.822089 116.126 -0.114385 122.862 2.95969 128.594L109.641 326.997C112.728 332.722 117.927 336.972 124.097 338.812C130.267 340.653 136.905 339.935 142.554 336.815L142.584 336.799L309.039 244.64L309.069 244.623C314.711 241.491 318.899 236.215 320.712 229.954C322.526 223.693 321.819 216.957 318.745 211.225L212.063 12.8217C208.977 7.09635 203.778 2.84723 197.607 1.00656C191.437 -0.834102 184.799 -0.115987 179.15 3.00336V3.00336Z" fill="#F2F2F2"/>
<path d="M182.495 9.22382L168.722 16.8491L29.7525 93.7912L15.9802 101.416C11.9622 103.647 8.98022 107.404 7.68847 111.862C6.39672 116.321 6.9007 121.118 9.08983 125.2L115.771 323.603C117.969 327.68 121.672 330.706 126.066 332.017C130.46 333.328 135.187 332.816 139.209 330.595L139.24 330.578L305.694 238.419L305.724 238.402C309.742 236.172 312.724 232.415 314.016 227.956C315.307 223.498 314.804 218.701 312.614 214.619L205.933 16.2158C203.735 12.1386 200.033 9.11273 195.639 7.80193C191.245 6.49114 186.518 7.00249 182.495 9.22382V9.22382Z" fill="white"/>
<path d="M184.791 70.8082L122.71 105.18C121.769 105.701 120.664 105.821 119.636 105.514C118.608 105.208 117.742 104.499 117.229 103.545C116.716 102.591 116.597 101.469 116.899 100.426C117.202 99.3825 117.9 98.504 118.84 97.9833L180.921 63.6115C181.862 63.0908 182.968 62.9705 183.995 63.2771C185.023 63.5838 185.889 64.2922 186.402 65.2465C186.915 66.2008 187.034 67.323 186.732 68.366C186.43 69.409 185.731 70.2875 184.791 70.8082H184.791Z" fill="#F2F2F2"/>
<path d="M205.949 74.8539L129.24 117.324C128.3 117.845 127.194 117.965 126.166 117.659C125.138 117.352 124.272 116.644 123.759 115.689C123.246 114.735 123.127 113.613 123.43 112.57C123.732 111.527 124.43 110.648 125.37 110.128L202.079 67.6572C202.545 67.3993 203.056 67.2371 203.584 67.1797C204.111 67.1223 204.644 67.171 205.153 67.3228C205.662 67.4746 206.137 67.7267 206.55 68.0646C206.963 68.4025 207.306 68.8196 207.56 69.2922C207.814 69.7647 207.974 70.2834 208.031 70.8186C208.087 71.3539 208.039 71.8952 207.89 72.4116C207.74 72.9281 207.492 73.4096 207.159 73.8286C206.826 74.2476 206.415 74.596 205.949 74.8539H205.949Z" fill="#F2F2F2"/>
<path d="M97.1879 90.8723L39.9526 122.561C39.5021 122.811 39.1677 123.232 39.0229 123.731C38.8782 124.231 38.9349 124.769 39.1807 125.226L63.5529 170.553C63.7988 171.01 64.2136 171.349 64.7061 171.496C65.1986 171.643 65.7284 171.586 66.179 171.336L123.414 139.647C123.865 139.398 124.199 138.977 124.344 138.477C124.489 137.977 124.432 137.44 124.186 136.983L99.8141 91.6558C99.5681 91.1986 99.1533 90.8592 98.6608 90.7123C98.1684 90.5654 97.6385 90.6229 97.1879 90.8723V90.8723Z" fill="#F2F2F2"/>
<path d="M215.595 128.321L131.389 174.942C130.924 175.199 130.413 175.362 129.885 175.419C129.358 175.476 128.824 175.428 128.315 175.276C127.806 175.124 127.332 174.872 126.919 174.534C126.506 174.196 126.163 173.779 125.909 173.307C125.654 172.834 125.495 172.315 125.438 171.78C125.382 171.245 125.429 170.704 125.579 170.187C125.729 169.671 125.977 169.189 126.31 168.77C126.643 168.351 127.054 168.003 127.52 167.745L211.725 121.124C212.666 120.603 213.771 120.483 214.799 120.789C215.827 121.096 216.693 121.804 217.206 122.759C217.719 123.713 217.838 124.835 217.536 125.878C217.233 126.921 216.535 127.8 215.595 128.321H215.595Z" fill="#F2F2F2"/>
<path d="M236.752 132.366L137.919 187.086C136.978 187.607 135.873 187.727 134.845 187.42C133.817 187.114 132.951 186.405 132.438 185.451C131.925 184.497 131.806 183.375 132.108 182.332C132.411 181.289 133.109 180.41 134.049 179.889L232.882 125.17C233.823 124.649 234.928 124.529 235.956 124.835C236.984 125.142 237.85 125.85 238.363 126.805C238.876 127.759 238.995 128.881 238.693 129.924C238.39 130.967 237.692 131.846 236.752 132.366H236.752Z" fill="#F2F2F2"/>
<path d="M99.3198 213.123C108.785 213.123 116.458 205.337 116.458 195.732C116.458 186.128 108.785 178.342 99.3198 178.342C89.8546 178.342 82.1816 186.128 82.1816 195.732C82.1816 205.337 89.8546 213.123 99.3198 213.123Z" fill="#F2F2F2"/>
<path d="M355.742 84.7548H166.054C159.623 84.7621 153.457 87.3579 148.909 91.9726C144.361 96.5873 141.803 102.844 141.796 109.37V335.385C141.803 341.911 144.361 348.168 148.909 352.782C153.457 357.397 159.623 359.993 166.054 360H355.742C362.173 359.993 368.339 357.397 372.887 352.782C377.435 348.168 379.993 341.911 380 335.385V109.37C379.993 102.844 377.435 96.5873 372.887 91.9726C368.339 87.3579 362.173 84.7621 355.742 84.7548V84.7548Z" fill="#E6E6E6"/>
<path d="M355.742 91.8411H166.054C161.474 91.8463 157.083 93.6948 153.845 96.981C150.606 100.267 148.784 104.723 148.779 109.37V335.385C148.784 340.032 150.606 344.488 153.845 347.774C157.083 351.06 161.474 352.909 166.054 352.914H355.742C360.322 352.908 364.713 351.06 367.951 347.774C371.19 344.488 373.012 340.032 373.017 335.385V109.37C373.012 104.723 371.19 100.267 367.952 96.9811C364.713 93.6948 360.322 91.8463 355.742 91.8411V91.8411Z" fill="white"/>
<path d="M328.689 147.018H257.968C256.897 147.018 255.869 146.586 255.112 145.817C254.354 145.049 253.929 144.006 253.929 142.919C253.929 141.832 254.354 140.789 255.112 140.02C255.869 139.252 256.897 138.82 257.968 138.82H328.689C329.22 138.819 329.746 138.925 330.236 139.13C330.727 139.336 331.173 139.638 331.549 140.019C331.924 140.399 332.222 140.851 332.425 141.349C332.629 141.847 332.733 142.38 332.733 142.919C332.733 143.457 332.629 143.991 332.425 144.489C332.222 144.986 331.924 145.438 331.549 145.819C331.173 146.2 330.727 146.501 330.236 146.707C329.746 146.913 329.22 147.019 328.689 147.018Z" fill="#5A5789"/>
<path d="M345.353 160.853H257.968C256.897 160.853 255.869 160.421 255.112 159.652C254.354 158.883 253.929 157.841 253.929 156.753C253.929 155.666 254.354 154.624 255.112 153.855C255.869 153.086 256.897 152.654 257.968 152.654H345.353C346.424 152.654 347.451 153.086 348.209 153.855C348.967 154.624 349.392 155.666 349.392 156.753C349.392 157.841 348.967 158.883 348.209 159.652C347.451 160.421 346.424 160.853 345.353 160.853V160.853Z" fill="#5A5789"/>
<path d="M242.318 122.054H177.117C176.604 122.054 176.112 122.261 175.749 122.629C175.386 122.998 175.182 123.497 175.182 124.018V175.653C175.182 176.174 175.386 176.673 175.749 177.041C176.112 177.41 176.604 177.617 177.117 177.617H242.318C242.831 177.617 243.323 177.41 243.686 177.041C244.049 176.673 244.253 176.174 244.253 175.653V124.018C244.253 123.497 244.049 122.998 243.686 122.629C243.323 122.261 242.831 122.054 242.318 122.054V122.054Z" fill="#E6E6E6"/>
<path d="M195.002 153.761C195.029 158.12 193.446 162.331 190.564 165.564C187.713 168.739 183.469 170.845 179.186 169.974C175.242 169.171 172.037 165.674 172.437 161.442C172.503 160.526 172.766 159.635 173.206 158.832C173.647 158.029 174.254 157.333 174.987 156.793C175.72 156.252 176.56 155.881 177.448 155.704C178.337 155.527 179.253 155.548 180.133 155.767C183.879 156.754 185.372 162.233 182.25 164.805C181.501 165.422 180.424 164.342 181.181 163.72C183.244 162.019 182.607 158.3 180.116 157.367C177.216 156.281 174.143 158.617 173.934 161.626C173.687 165.193 176.38 167.88 179.683 168.512C183.255 169.196 186.798 167.341 189.218 164.78C191.993 161.806 193.524 157.856 193.49 153.761C193.497 153.562 193.579 153.374 193.72 153.236C193.861 153.097 194.05 153.02 194.246 153.02C194.442 153.02 194.631 153.097 194.772 153.236C194.913 153.374 194.995 153.562 195.002 153.761V153.761Z" fill="#2F2E41"/>
<path d="M209.768 163.516C224.667 163.516 236.745 151.26 236.745 136.141C236.745 121.023 224.667 108.767 209.768 108.767C194.869 108.767 182.791 121.023 182.791 136.141C182.791 151.26 194.869 163.516 209.768 163.516Z" fill="#5A5789"/>
<path d="M208.388 147.822L208.36 146.799C210.236 146.746 211.889 146.627 213.132 145.705C213.484 145.429 213.773 145.08 213.981 144.68C214.188 144.28 214.308 143.84 214.332 143.389C214.354 143.114 214.313 142.837 214.212 142.58C214.111 142.323 213.953 142.094 213.751 141.909C212.926 141.202 211.599 141.431 210.632 141.881L209.798 142.269L211.397 130.407L212.396 130.546L211.035 140.636C212.35 140.244 213.568 140.413 214.402 141.128C214.722 141.411 214.973 141.766 215.136 142.165C215.299 142.563 215.368 142.995 215.339 143.425C215.31 144.031 215.15 144.623 214.872 145.16C214.593 145.696 214.202 146.164 213.726 146.532C212.13 147.715 210.055 147.774 208.388 147.822Z" fill="#2F2E41"/>
<path d="M222.764 131.416H217.335V132.439H222.764V131.416Z" fill="#2F2E41"/>
<path d="M205.627 131.416H200.197V132.439H205.627V131.416Z" fill="#2F2E41"/>
<path d="M194.825 177.617C196.847 176.315 199.033 175.295 201.323 174.584C201.104 173.796 201.108 172.961 201.333 172.175C201.637 171.181 202.249 170.314 203.078 169.703C203.908 169.092 204.91 168.769 205.935 168.783H212.508C213.534 168.77 214.538 169.094 215.369 169.705C216.2 170.317 216.814 171.185 217.12 172.18C217.345 172.964 217.349 173.797 217.13 174.584C219.42 175.296 221.605 176.316 223.627 177.617H194.825Z" fill="#2F2E41"/>
<path d="M240.669 125.982C240.178 125.378 239.573 124.879 238.89 124.514C238.291 124.197 237.625 124.03 236.949 124.028C236.021 124.04 235.12 124.348 234.373 124.908C232.322 126.381 230.9 129.557 230.9 133.235C230.9 137.849 233.138 141.675 236.047 142.34C236.343 142.407 236.646 142.441 236.949 142.442C240.281 142.442 242.998 138.314 242.998 133.235C242.998 130.289 242.086 127.665 240.669 125.982Z" fill="#3F3D56"/>
<path d="M185.263 124.688H185.258C184.584 124.263 183.808 124.035 183.015 124.028C182.339 124.03 181.673 124.197 181.074 124.514C180.391 124.879 179.786 125.378 179.295 125.982L179.289 125.987C177.878 127.67 176.966 130.294 176.966 133.235C176.966 137.204 178.619 140.59 180.938 141.884C181.572 142.245 182.287 142.437 183.015 142.442C183.176 142.442 183.338 142.432 183.498 142.411H183.503C186.608 142.033 189.063 138.063 189.063 133.235C189.063 129.368 187.486 126.049 185.263 124.688Z" fill="#3F3D56"/>
<path d="M181.316 141.004C181.436 141.004 181.555 140.975 181.662 140.919C181.768 140.864 181.86 140.783 181.93 140.684C182 140.585 182.046 140.471 182.064 140.35C182.082 140.23 182.071 140.107 182.033 139.991C180.588 135.631 180.153 130.991 180.763 126.432C181.372 121.873 183.009 117.519 185.547 113.706C188.085 109.894 191.454 106.727 195.394 104.451C199.334 102.175 203.739 100.852 208.265 100.584C212.791 100.316 217.316 101.11 221.491 102.906C225.665 104.702 229.375 107.45 232.332 110.937C235.289 114.424 237.414 118.556 238.542 123.011C239.67 127.467 239.77 132.127 238.834 136.629C238.793 136.828 238.831 137.035 238.941 137.206C239.05 137.376 239.222 137.496 239.418 137.538C239.614 137.58 239.819 137.541 239.987 137.43C240.155 137.319 240.273 137.144 240.314 136.945C241.298 132.212 241.194 127.313 240.008 122.628C238.823 117.943 236.589 113.598 233.48 109.932C230.371 106.266 226.47 103.376 222.081 101.488C217.693 99.6003 212.934 98.7648 208.175 99.0467C203.417 99.3285 198.786 100.72 194.644 103.113C190.501 105.506 186.959 108.837 184.291 112.845C181.623 116.854 179.902 121.433 179.262 126.226C178.622 131.019 179.08 135.897 180.6 140.482C180.651 140.634 180.747 140.766 180.875 140.86C181.004 140.954 181.158 141.004 181.316 141.004Z" fill="#3F3D56"/>
<path d="M223.32 118.405C224.388 119.885 223.862 121.879 222.736 123.155C221.272 124.815 218.936 124.919 216.908 124.611C214.633 124.265 212.219 123.184 209.916 123.913C207.952 124.534 206.551 126.341 204.512 126.795C202.702 127.198 200.539 126.665 199.905 124.708C199.6 123.768 201.06 123.365 201.363 124.3C201.773 125.566 203.545 125.541 204.56 125.19C206.186 124.628 207.44 123.261 209.038 122.609C210.923 121.839 212.968 122.186 214.887 122.625C216.696 123.038 218.777 123.651 220.579 122.879C221.913 122.308 222.974 120.508 222.014 119.18C221.439 118.382 222.75 117.616 223.32 118.405V118.405Z" fill="#2F2E41"/>
<path d="M328.583 212.475H232.659C232.128 212.475 231.603 212.369 231.113 212.163C230.623 211.957 230.177 211.655 229.802 211.275C229.427 210.894 229.13 210.442 228.927 209.945C228.724 209.447 228.619 208.914 228.619 208.376C228.619 207.838 228.724 207.305 228.927 206.807C229.13 206.31 229.427 205.858 229.802 205.478C230.177 205.097 230.623 204.795 231.113 204.589C231.603 204.383 232.128 204.277 232.659 204.277H328.583C329.653 204.278 330.68 204.711 331.436 205.479C332.193 206.248 332.618 207.29 332.618 208.376C332.618 209.462 332.193 210.504 331.436 211.273C330.68 212.042 329.653 212.474 328.583 212.475V212.475Z" fill="#E6E6E6"/>
<path d="M345.246 226.31H232.658C232.128 226.31 231.602 226.205 231.111 225.999C230.62 225.793 230.175 225.491 229.799 225.111C229.423 224.73 229.125 224.278 228.922 223.78C228.719 223.283 228.614 222.749 228.614 222.211C228.614 221.672 228.719 221.139 228.922 220.641C229.125 220.143 229.423 219.691 229.799 219.31C230.175 218.93 230.62 218.628 231.111 218.422C231.602 218.216 232.128 218.111 232.658 218.112H345.246C345.777 218.111 346.302 218.216 346.793 218.422C347.284 218.628 347.73 218.93 348.105 219.31C348.481 219.691 348.779 220.143 348.982 220.641C349.185 221.139 349.29 221.672 349.29 222.211C349.29 222.749 349.185 223.283 348.982 223.78C348.779 224.278 348.481 224.73 348.105 225.111C347.73 225.491 347.284 225.793 346.793 225.999C346.302 226.205 345.777 226.31 345.246 226.31Z" fill="#E6E6E6"/>
<path d="M328.583 262.199H232.659C231.587 262.199 230.56 261.767 229.802 260.998C229.045 260.229 228.619 259.187 228.619 258.1C228.619 257.012 229.045 255.97 229.802 255.201C230.56 254.432 231.587 254 232.659 254H328.583C329.654 254 330.682 254.432 331.439 255.201C332.197 255.97 332.622 257.012 332.622 258.1C332.622 259.187 332.197 260.229 331.439 260.998C330.682 261.767 329.654 262.199 328.583 262.199V262.199Z" fill="#E6E6E6"/>
<path d="M345.246 276.033H232.659C231.587 276.033 230.56 275.601 229.802 274.833C229.045 274.064 228.619 273.021 228.619 271.934C228.619 270.847 229.045 269.804 229.802 269.036C230.56 268.267 231.587 267.835 232.659 267.835H345.246C346.317 267.835 347.345 268.267 348.103 269.036C348.86 269.804 349.286 270.847 349.286 271.934C349.286 273.021 348.86 274.064 348.103 274.833C347.345 275.601 346.317 276.033 345.246 276.033Z" fill="#E6E6E6"/>
<path d="M194.694 232.53C204.159 232.53 211.832 224.744 211.832 215.139C211.832 205.535 204.159 197.749 194.694 197.749C185.229 197.749 177.556 205.535 177.556 215.139C177.556 224.744 185.229 232.53 194.694 232.53Z" fill="#E6E6E6"/>
<path d="M194.694 282.656C204.159 282.656 211.832 274.87 211.832 265.265C211.832 255.661 204.159 247.875 194.694 247.875C185.229 247.875 177.556 255.661 177.556 265.265C177.556 274.87 185.229 282.656 194.694 282.656Z" fill="#E6E6E6"/>
<path d="M328.583 312.325H232.659C231.587 312.325 230.56 311.893 229.802 311.124C229.045 310.355 228.619 309.313 228.619 308.225C228.619 307.138 229.045 306.096 229.802 305.327C230.56 304.558 231.587 304.126 232.659 304.126H328.583C329.654 304.126 330.682 304.558 331.439 305.327C332.197 306.096 332.622 307.138 332.622 308.225C332.622 309.313 332.197 310.355 331.439 311.124C330.682 311.893 329.654 312.325 328.583 312.325V312.325Z" fill="#E6E6E6"/>
<path d="M345.246 326.159H232.659C231.587 326.159 230.56 325.727 229.802 324.959C229.045 324.19 228.619 323.147 228.619 322.06C228.619 320.973 229.045 319.93 229.802 319.162C230.56 318.393 231.587 317.961 232.659 317.961H345.246C346.317 317.961 347.345 318.393 348.103 319.162C348.86 319.93 349.286 320.973 349.286 322.06C349.286 323.147 348.86 324.19 348.103 324.959C347.345 325.727 346.317 326.159 345.246 326.159V326.159Z" fill="#E6E6E6"/>
<path d="M194.694 332.782C204.159 332.782 211.832 324.996 211.832 315.391C211.832 305.787 204.159 298.001 194.694 298.001C185.229 298.001 177.556 305.787 177.556 315.391C177.556 324.996 185.229 332.782 194.694 332.782Z" fill="#E6E6E6"/>
</g>
<defs>
<clipPath id="clip0">
<rect width="380" height="360" fill="white"/>
</clipPath>
</defs>
</svg>
