<svg xmlns="http://www.w3.org/2000/svg" width="85.595" height="60" viewBox="0 0 85.595 60"><defs><style>.a{fill:#fff;}</style></defs><g transform="translate(42.797 30)"><g transform="translate(-42.797 -30)"><path class="a" d="M267.654,0A19.811,19.811,0,0,0,247.9,19.773V27.5h3.341V19.773A16.431,16.431,0,0,1,267.654,3.357H286.5V27.5h3.341V0Z" transform="translate(-238.412)"/><path class="a" d="M286.5,1349.4v4.995H251.241V1349.4H247.9v8.352h41.946V1349.4Z" transform="translate(-238.412 -1297.752)"/><g transform="translate(0 30.861)"><path class="a" d="M9.488,822.138A4.943,4.943,0,0,1,5.6,824.044c-3.192,0-5.6-2.4-5.6-6.61,0-4.13,2.377-6.637,5.592-6.637a4.863,4.863,0,0,1,3.893,1.933V806.3H12.83v17.434H9.488Zm0-6.951a3.648,3.648,0,0,0-2.874-1.439c-1.883,0-3.188,1.489-3.188,3.686s1.305,3.659,3.188,3.659a3.642,3.642,0,0,0,2.874-1.439Z" transform="translate(0 -806.3)"/><path class="a" d="M434.3,930.314a6.677,6.677,0,1,1,6.664,6.641A6.395,6.395,0,0,1,434.3,930.314Zm9.906,0c0-1.96-1.175-3.659-3.242-3.659s-3.215,1.7-3.215,3.659S438.9,934,440.964,934,444.206,932.3,444.206,930.314Z" transform="translate(-417.677 -919.206)"/><path class="a" d="M867.09,923.8a5.816,5.816,0,0,1,4.991,2.3l-2.17,2.013a3.126,3.126,0,0,0-2.668-1.359,3.681,3.681,0,0,0,0,7.345,3.2,3.2,0,0,0,2.668-1.359l2.17,2.013a5.822,5.822,0,0,1-4.991,2.3,6.628,6.628,0,1,1,0-13.255Z" transform="translate(-827.468 -919.303)"/><path class="a" d="M1261.238,818.873l-1.5,1.619v3.242H1256.4V806.3h3.341v10.43l4.765-5.619h4.076l-4.991,5.722,5.148,6.9h-4.157Z" transform="translate(-1208.311 -806.3)"/><path class="a" d="M1626.938,923.8c3.762,0,6.323,2.821,6.323,6.951v.731h-9.381a3.4,3.4,0,0,0,3.632,2.928,5.166,5.166,0,0,0,3.372-1.255l1.462,2.143a7.792,7.792,0,0,1-5.2,1.753,6.626,6.626,0,1,1-.207-13.251Zm-3.112,5.435h6.22a2.924,2.924,0,0,0-3.112-2.8A3.036,3.036,0,0,0,1623.826,929.235Z" transform="translate(-1558.379 -919.303)"/><path class="a" d="M2017.99,854.737v-6.583h-2.09v-2.9h2.09V841.8h3.345v3.452h2.561v2.9h-2.561v5.7c0,.785.417,1.385,1.148,1.385a1.794,1.794,0,0,0,1.148-.367l.7,2.511a4.1,4.1,0,0,1-2.771.811C2019.245,858.189,2017.99,856.988,2017.99,854.737Z" transform="translate(-1938.741 -840.441)"/></g></g></g></svg>